<svg xmlns="http://www.w3.org/2000/svg" width="64" height="64" viewBox="0 0 64 64" role="img" aria-labelledby="title">
  <title id="title">OUR RENTCAR</title>
  <defs>
    <linearGradient id="urGradient" x1="17" x2="48" y1="18" y2="38" gradientUnits="userSpaceOnUse">
      <stop stop-color="#a13ab4"/>
      <stop offset="0.5" stop-color="#626eb8"/>
      <stop offset="1" stop-color="#39a9d2"/>
    </linearGradient>
  </defs>
  <circle cx="32" cy="32" r="31" fill="#fff"/>
  <g fill="none" stroke="url(#urGradient)" stroke-linecap="square" stroke-linejoin="miter">
    <path d="M20 22v9c0 8 5 13 12 13s12-5 12-13v-9" stroke-width="3"/>
    <path d="M27 40c-4-3-6-8-6-14 0-9 7-15 16-15 8 0 14 5 15 13H36v20" stroke-width="3"/>
    <path d="M36 22h11c7 0 12 5 12 11s-5 11-12 11H36" stroke-width="3"/>
    <path d="M47 44l9 8" stroke-width="3"/>
  </g>
</svg>
